<svg width="236" height="90" viewBox="0 0 236 90" fill="none" xmlns="http://www.w3.org/2000/svg">
<g clip-path="url(#clip0_37_12)">
<path d="M222.352 64.6578C218.351 63.6379 214.898 62.7748 214.898 59.4796C214.898 56.8904 216.86 55.2428 219.998 55.2428C222.901 55.0859 225.569 57.0474 226.118 59.9503L233.964 56.1843C231.846 51.006 226.746 47.8677 220.234 47.8677C211.76 47.8677 205.876 53.046 205.876 60.4211C205.876 69.4438 212.388 71.1699 218.194 72.6606C222.274 73.6806 225.726 74.6221 225.726 77.9958C225.726 80.8203 223.45 82.6249 219.998 82.6249C216.546 82.6249 213.643 80.7419 212.859 77.9174L205.013 81.6834C207.21 86.8617 212.78 90 219.684 90C228.864 90 234.749 84.9002 234.749 76.8974C234.749 67.7962 227.844 66.0701 222.352 64.6578Z" fill="#F1F4FD"/>
<path d="M235.376 11.384V15.5423H228.707V19.4653H234.513L233.415 23.4667H228.707V29.6649H224.156V11.384H235.376Z" fill="#F1F4FD"/>
<path d="M212.702 15.6208C215.526 15.6208 217.801 17.8961 217.801 20.7206C217.801 23.5452 215.526 25.8205 212.702 25.8205C209.877 25.8205 207.602 23.5452 207.602 20.7206C207.602 17.8961 209.877 15.6208 212.702 15.6208ZM212.702 30.2142C217.958 30.2142 222.195 25.8989 222.195 20.6422C222.195 15.3855 217.88 11.1487 212.623 11.1487C207.366 11.1487 203.13 15.4639 203.13 20.6422C203.13 25.9774 207.445 30.2926 212.702 30.2142Z" fill="#F1F4FD"/>
<path d="M129.065 88.8231H137.538V62.0687L156.761 88.8231H165.626V48.103H157.074V75.2497L138.087 48.103H127.103L129.065 52.1044V88.8231Z" fill="#F1F4FD"/>
<path d="M194.342 73.2884C193.165 76.1913 190.812 78.4666 187.987 79.722C186.496 80.3497 184.927 80.6635 183.279 80.6635H178.415V56.3413H183.279C184.927 56.3413 186.496 56.6551 187.987 57.2828C190.89 58.4597 193.165 60.8134 194.342 63.7164C195.597 66.8547 195.597 70.2285 194.342 73.2884ZM191.518 49.7508C188.928 48.7308 186.182 48.1816 183.436 48.0247H169.549V88.7447H183.436C188.928 88.7447 194.185 86.7048 198.187 82.9388C200.07 81.1342 201.639 78.9374 202.659 76.5052C206.032 68.8162 204.228 59.8719 198.187 54.066C196.225 52.2614 194.028 50.7707 191.518 49.7508Z" fill="#F1F4FD"/>
<path d="M54.2934 88.8231H30.0497V48.103H54.2934V56.0274H38.9155V64.2655H52.9596L50.8412 71.9545H38.9155V80.8988L54.2934 80.9772V88.8231Z" fill="#F1F4FD"/>
<path d="M109.685 56.0274H125.063V48.103H100.898V88.8231H125.063V80.9772L109.685 80.8988V71.9545H121.611L123.729 64.2655H109.685V56.0274Z" fill="#F1F4FD"/>
<path d="M140.441 32.1756C139.656 29.9003 139.264 27.5466 139.343 25.1928L139.5 0.0860271H148.287L148.208 24.8005C148.208 27.5466 148.836 29.7434 150.092 31.3126C153.073 34.4509 158.094 34.5294 161.154 31.4695L161.311 31.3126C162.645 29.7434 163.273 27.5466 163.273 24.8005L163.351 0.00756836H172.295L172.138 25.3497C172.138 27.7035 171.825 30.0573 171.04 32.3326C170.334 34.294 169.157 36.0986 167.745 37.6678C166.254 39.1585 164.528 40.3354 162.566 41.0415C158.094 42.6107 153.23 42.6107 148.758 40.963C146.796 40.1784 145.07 39.08 143.658 37.5108C142.246 36.0201 141.147 34.2156 140.441 32.1756Z" fill="#F1F4FD"/>
<path d="M96.3473 29.0371C95.2489 26.448 94.6997 23.6234 94.6997 20.8774C94.6997 18.0529 95.3274 15.3068 96.4258 12.7177C97.5242 10.207 99.0934 7.9317 101.055 6.04869C103.016 4.08723 105.37 2.59651 107.881 1.57655C110.47 0.478127 113.294 -0.0710839 116.197 0.00737477C120.042 -0.0711271 123.886 0.948879 127.26 2.83189C130.398 4.63644 132.988 7.30403 134.635 10.5993L126.632 14.3653C125.691 12.4823 124.2 10.9131 122.396 9.81471C120.513 8.71629 118.316 8.24554 116.119 8.24554C114.471 8.24554 112.745 8.55938 111.254 9.18704C109.764 9.81471 108.43 10.7562 107.332 11.9331C106.155 13.11 105.292 14.5222 104.664 16.0129C103.33 19.2298 103.33 22.7604 104.586 25.9772C105.762 29.0371 108.195 31.5478 111.176 32.8816C112.745 33.5877 114.393 33.98 116.119 33.9015C118.63 33.98 121.14 33.1954 123.18 31.7831C125.063 30.4494 126.397 28.4094 126.946 26.1341H112.431L116.04 18.759H136.283C136.361 20.3282 136.283 23.7019 136.204 24.408C135.969 26.291 135.498 28.174 134.792 29.9786C132.831 34.843 128.986 38.6091 124.122 40.5705C116.119 43.7873 107.018 41.9043 100.898 35.7845C98.9364 33.8231 97.4458 31.5478 96.3473 29.0371Z" fill="#F1F4FD"/>
<path d="M2.03993 36.7259V4.32246L0 0.0856934H10.8273V32.9599H27.0683L24.793 40.9627H0L2.03993 36.7259Z" fill="#F1F4FD"/>
<path d="M2.03993 84.5863V52.1828L0 47.946H10.8273V80.8203H27.0683L24.793 88.823H0L2.03993 84.5863Z" fill="#F1F4FD"/>
<path d="M54.2934 40.9632H30.0497V0.243164H54.2934V8.16749H38.9155V16.4057H52.9596L50.8412 24.0946H38.9155V32.9604L54.2934 33.0389V40.9632Z" fill="#F1F4FD"/>
<path d="M200.384 40.9632H176.218V0.243164H200.462V8.1675H185.084V16.4057H199.128L197.01 24.0946H185.084V32.9605L200.462 33.039V40.9633L200.384 40.9632Z" fill="#F1F4FD"/>
<path d="M77.5172 11.5409L82.617 25.2712H72.182L77.5172 11.5409ZM66.1407 40.9629L69.2006 33.0386H85.52L88.6583 40.9629H97.838L81.4401 0.0859375H68.8867L71.5543 5.42113L57.1179 40.9629H66.1407Z" fill="#F1F4FD"/>
<path d="M72.6527 89.4509C74.1434 89.7647 75.6341 89.9216 77.2033 89.9216C79.9494 90.0001 82.6954 89.4509 85.2846 88.4309C90.149 86.4694 93.9935 82.7034 95.9549 77.839C96.6611 76.0344 97.1318 74.1514 97.3672 72.2684C97.5241 70.3854 97.5241 68.5024 97.4457 66.5409H77.2033V66.6194L73.5942 73.9945H88.0306C87.4814 76.2698 86.1476 78.3097 84.2646 79.6435C82.2247 81.1343 79.7925 81.8404 77.2818 81.7619C76.4972 81.7619 75.7911 81.6835 75.0065 81.5265L73.2019 81.0558C72.8881 80.9773 72.6527 80.8204 72.3389 80.742C69.3574 79.4082 66.9252 76.9759 65.7484 73.8376C64.493 70.6208 64.493 67.0117 65.8268 63.7949C66.4545 62.3042 67.396 60.8919 68.4944 59.715C69.5928 58.5381 71.0051 57.6751 72.4958 57.0474C74.065 56.4198 75.7126 56.1059 77.3602 56.1059C79.5571 56.0275 81.7539 56.5767 83.6369 57.6751C85.4415 58.7735 86.9322 60.3427 87.8737 62.2257L95.8765 58.4597C94.2289 55.1644 91.7182 52.4968 88.5014 50.6923C85.1276 48.8093 81.3616 47.8678 77.4387 47.8678C71.7897 47.7893 66.376 49.9861 62.2962 53.9875C60.3347 55.8705 58.7655 58.1458 57.6671 60.6565C55.3918 65.8348 55.3918 71.7977 57.5886 76.9759C58.6871 79.4866 60.1778 81.7619 62.0608 83.7234C63.7869 85.4495 65.8268 86.8617 68.0236 87.9602C69.5667 88.6552 71.1097 89.2192 72.6527 89.4509Z" fill="#F1F4FD"/>
</g>
<defs>
<clipPath id="clip0_37_12">
<rect width="235.376" height="90" fill="white"/>
</clipPath>
</defs>
</svg>
