<svg width="34" height="34" viewBox="0 0 34 34" fill="none" xmlns="http://www.w3.org/2000/svg">
<mask id="mask0_667_2698" style="mask-type:alpha" maskUnits="userSpaceOnUse" x="0" y="0" width="34" height="34">
<rect width="34" height="34" rx="5" fill="#1C1C1F"/>
</mask>
<g mask="url(#mask0_667_2698)">
<rect x="0.5" y="0.5" width="33" height="33" rx="4.5" fill="#1C1C1F" stroke="#17AF9D"/>
</g>
<g clip-path="url(#clip0_667_2698)">
<path d="M16.7058 18.5122L7.81274 13.8283L5.31177 16.8279C8.46655 18.4995 11.6213 20.1711 14.7782 21.8448L16.7058 18.5122ZM17.3935 8.97889L8.46867 13.4167L17.1692 18.001L25.8866 13.4083L20.8868 10.7863L17.3935 8.97889ZM7.36206 13.3234L4.08244 10.2093C3.96183 10.0714 3.97453 9.85925 4.11418 9.73621C4.13322 9.71924 4.15649 9.70439 4.17765 9.69166L14.1456 4.03829C14.3043 3.95344 14.5011 4.01284 14.5899 4.16769L17.3892 8.03278L19.2555 4.52832C19.3422 4.36498 19.5432 4.30134 19.7061 4.38831L29.8201 9.74894C29.8497 9.76591 29.8772 9.785 29.9026 9.81046C30.0317 9.94198 30.0295 10.1541 29.8984 10.2835L26.9023 13.2343L29.8031 16.7154C29.9216 16.8576 29.9026 17.0697 29.7608 17.1864C29.7397 17.2033 29.7164 17.2182 29.6931 17.2309L27.0885 18.6119V23.788C27.0885 23.928 27.0038 24.0468 26.8811 24.0977L17.4633 28.8898C17.4019 28.9577 17.3131 29.0001 17.2157 29.0001C17.0846 29.0001 16.9724 28.9259 16.9174 28.8156L7.48266 24.085C7.36629 24.0256 7.29858 23.9089 7.29858 23.7859V18.6374L4.64526 17.2309C4.62199 17.2182 4.59871 17.2033 4.57755 17.1864C4.43579 17.0676 4.41675 16.8554 4.53524 16.7154L7.36206 13.3234ZM16.873 8.46765L14.1794 4.77864L4.86108 10.0884L7.90584 12.931L16.873 8.46765ZM17.9119 8.47189L21.0328 10.1096L26.3394 12.8525L29.1049 10.1287L19.6892 5.13502L17.9119 8.47189ZM26.5278 13.8283L17.6347 18.5122L19.5623 21.8427L29.0287 16.8257L26.5278 13.8283Z" fill="#17AF9D"/>
</g>
<defs>
<clipPath id="clip0_667_2698">
<rect width="26" height="25" fill="white" transform="translate(4 4)"/>
</clipPath>
</defs>
</svg>
