<svg width="25" height="25" viewBox="0 0 25 25" fill="none" xmlns="http://www.w3.org/2000/svg">
<path d="M13.5415 1.0415L17.3438 8.07275L16.4063 9.3751H14.518L12.5 6.77119L10.5079 9.3751H8.5938L7.66958 8.07275L11.4586 1.0415L1.04224 7.2915L4.68833 13.5415C4.68833 20.3774 10.0266 23.8282 10.0266 23.8282V20.7032H15.1047V23.8282C15.1047 23.8282 20.3133 20.3774 20.3133 13.5415L23.9594 7.2915L13.543 1.0415H13.5415ZM13.8805 11.4712C14.1149 12.0438 13.9844 12.6954 13.5547 13.1376C13.125 13.5798 12.4868 13.7103 11.9274 13.4634C11.6534 13.3441 11.4201 13.1476 11.2559 12.8978C11.0918 12.6481 11.004 12.356 11.0032 12.0571C11.0032 11.2235 11.6672 10.5337 12.4875 10.5337C13.0993 10.5337 13.6461 10.8985 13.8805 11.4712ZM8.47661 14.0103C8.9063 13.5806 9.54458 13.4501 10.104 13.6845C10.6633 13.9188 11.0282 14.479 11.0282 15.0907C11.0282 15.9243 10.3641 16.6009 9.5438 16.6142C8.9188 16.6009 8.37192 16.2235 8.15083 15.6634C8.03613 15.3863 8.00586 15.0815 8.06382 14.7872C8.12178 14.4929 8.26539 14.2224 8.47661 14.0095V14.0103ZM12.5 19.6353C11.6797 19.6353 11.0157 18.9579 11.0157 18.1118C11.0157 17.2782 11.6797 16.6017 12.5 16.6017C13.3204 16.6017 13.9844 17.279 13.9844 18.1251C13.9844 18.529 13.8282 18.9196 13.5547 19.2056C13.2813 19.4915 12.8907 19.6485 12.5 19.6485V19.6353ZM14.4274 14.0103C14.8571 13.5806 15.4954 13.4501 16.0547 13.6845C16.6141 13.9188 16.979 14.479 16.979 15.0907C16.979 15.9243 16.3149 16.6142 15.4946 16.6142C14.8696 16.6009 14.336 16.2235 14.1016 15.6634C13.9869 15.3863 13.9566 15.0815 14.0146 14.7872C14.0726 14.4929 14.2162 14.2224 14.4274 14.0095V14.0103Z" fill="#2D62D7"/>
</svg>
