<svg width="25" height="25" viewBox="0 0 25 25" fill="none" xmlns="http://www.w3.org/2000/svg">
<path d="M19.2321 8.00791V2.20088L14.7009 6.2501L12.2657 1.0415L9.83057 6.2501L5.3126 2.20088V8.00791H1.0415L5.76807 11.8751V15.8337C5.76807 16.5892 6.08057 17.5657 6.64072 18.086L11.6017 23.5681C11.836 23.8157 12.1485 23.9587 12.5001 23.9587C12.8517 23.9587 13.1642 23.8157 13.3985 23.5681L18.3728 18.086C18.9329 17.5649 19.2454 16.6017 19.2454 15.8337V11.8751L23.9587 8.00791H19.2321ZM10.8595 15.5603C7.9165 16.2634 7.03135 10.6774 7.03135 10.6774C12.422 13.7376 10.8595 15.5603 10.8595 15.5603ZM14.0493 15.5603C14.0493 15.5603 12.8907 13.4509 17.9688 10.547C17.9688 10.547 17.0837 16.2759 14.0493 15.5603Z" fill="#F54B4E"/>
</svg>
