<svg width="25" height="25" viewBox="0 0 25 25" fill="none" xmlns="http://www.w3.org/2000/svg">
<path d="M14.4532 3.164C19.4532 2.78665 23.711 5.20853 23.9454 8.52884C24.1274 10.964 22.0703 13.2296 18.9844 14.4015C19.0883 14.7007 19.1407 15.0007 19.1664 15.3132C19.4141 18.6335 15.5727 21.4851 10.5469 21.8499C5.52113 22.2148 1.30238 19.9359 1.05472 16.6156C0.885193 14.1804 2.92972 11.9148 6.01566 10.7429C5.91639 10.448 5.85522 10.1416 5.83363 9.83118C5.58597 6.51087 9.45316 3.54134 14.4532 3.164ZM3.51566 16.146C3.29457 17.7085 5.83363 19.9093 10.4164 19.5312C14.9993 19.1531 16.393 17.2656 15.7032 15.1429C15.6618 15.1468 15.6204 15.1523 15.5782 15.1577C15.4883 15.1695 15.3969 15.182 15.3 15.182C12.0321 15.4163 9.07582 14.4531 7.35707 12.8249C5.45629 13.2156 3.75004 14.5312 3.51566 16.146Z" fill="#F54B4E"/>
</svg>
