<svg width="25" height="25" viewBox="0 0 25 25" fill="none" xmlns="http://www.w3.org/2000/svg">
<path d="M14.4532 3.16424C19.4532 2.7869 23.711 5.20877 23.9454 8.52909C24.1274 10.9642 22.0703 13.2299 18.9844 14.4017C19.0883 14.701 19.1407 15.001 19.1664 15.3135C19.4141 18.6338 15.5727 21.4853 10.5469 21.8502C5.52113 22.215 1.30238 19.9361 1.05472 16.6158C0.885193 14.1806 2.92972 11.915 6.01566 10.7431C5.91639 10.4482 5.85522 10.1418 5.83363 9.83143C5.58597 6.51112 9.45316 3.54159 14.4532 3.16424ZM3.51566 16.1463C3.29457 17.7088 5.83363 19.9096 10.4164 19.5314C14.9993 19.1533 16.393 17.2658 15.7032 15.1431C15.6618 15.1471 15.6204 15.1525 15.5782 15.158C15.4883 15.1697 15.3969 15.1822 15.3 15.1822C12.0321 15.4166 9.07582 14.4533 7.35707 12.8252C5.45629 13.2158 3.75004 14.5314 3.51566 16.1463Z" fill="#2D62D7"/>
</svg>
