<svg width="25" height="25" viewBox="0 0 25 25" fill="none" xmlns="http://www.w3.org/2000/svg">
<path d="M19.5313 15.104C19.5336 15.1626 19.5321 15.2181 19.5305 15.2743C19.529 15.3446 19.5266 15.4165 19.5313 15.4946C19.5313 17.647 17.0125 19.6415 14.9743 21.0938C14.2313 21.5688 13.3993 21.7579 12.5 21.7446C11.6485 21.7321 10.7297 21.5431 10.0258 21.0938C7.98755 19.6415 5.4688 17.647 5.4688 15.4946V15.104L2.60396 13.672C2.60396 8.57978 8.20317 2.604 8.20317 2.604V8.4415C9.38521 7.52119 11 6.95557 12.5 6.90088C14 6.84619 15.2243 7.52119 16.4063 8.4415V2.604C16.4063 2.604 22.3961 8.57978 22.3961 13.672L19.5313 15.104ZM13.6899 18.2712C15.0055 17.4032 16.9485 15.8985 16.9266 14.5962C16.9266 9.45713 12.511 9.50479 12.511 9.50479C12.511 9.50479 8.07271 9.45635 8.07271 14.5962C8.07271 15.8985 10.0071 17.3938 11.3313 18.2712C11.6824 18.4988 12.0918 18.6199 12.5102 18.6199C12.9286 18.6199 13.338 18.4988 13.6891 18.2712H13.6899ZM4.03677 16.4063L1.04224 19.2712C2.27349 20.6673 5.72974 22.3962 5.72974 22.3962C4.3688 20.0642 4.03677 16.4063 4.03677 16.4063ZM23.9586 19.2712C22.7274 20.6673 19.2711 22.3962 19.2711 22.3962C20.6321 20.0642 20.9641 16.4063 20.9641 16.4063L23.9586 19.2712ZM14.1485 13.5392L13.1032 12.0399C12.9719 11.8399 12.7461 11.7188 12.504 11.7188C12.2618 11.7188 12.036 11.8399 11.9047 12.0399L10.8415 13.5392C10.6141 13.8649 10.6227 14.297 10.8633 14.6134L11.9266 15.9837C11.993 16.0746 12.0798 16.1485 12.1802 16.1995C12.2805 16.2505 12.3914 16.277 12.504 16.277C12.6165 16.277 12.7274 16.2505 12.8277 16.1995C12.9281 16.1485 13.0149 16.0746 13.0813 15.9837L14.1485 14.6134C14.2616 14.4572 14.3226 14.2692 14.3226 14.0763C14.3226 13.8834 14.2616 13.6954 14.1485 13.5392Z" fill="#2D62D7"/>
</svg>
