<svg width="25" height="25" viewBox="0 0 25 25" fill="none" xmlns="http://www.w3.org/2000/svg">
<path d="M12.5001 1.0415C6.17197 1.0415 1.0415 6.17197 1.0415 12.5001C1.0415 18.8282 6.17197 23.9587 12.5001 23.9587C18.8282 23.9587 23.9587 18.8282 23.9587 12.5001C23.9454 6.17197 18.8282 1.05479 12.5001 1.0415ZM12.5001 21.0938C7.74775 21.0938 3.90635 17.2524 3.90635 12.5001C3.90635 7.74775 7.74775 3.90635 12.5001 3.90635C17.2524 3.90635 21.0938 7.74775 21.0938 12.5001C21.0938 17.2399 17.2399 21.0938 12.5001 21.0938ZM12.5001 17.7087L7.2915 12.5001L12.5001 7.2915L17.7087 12.5001L12.5001 17.7087Z" fill="#F54B4E"/>
</svg>
